<svg width="18" height="18" viewBox="0 0 18 18" fill="none" xmlns="http://www.w3.org/2000/svg">
<path d="M8.99996 2.33329C12.675 2.33329 15.6666 5.32496 15.6666 8.99996C15.6666 12.675 12.675 15.6666 8.99996 15.6666C5.32496 15.6666 2.33329 12.675 2.33329 8.99996C2.33329 5.32496 5.32496 2.33329 8.99996 2.33329ZM8.99996 0.666626C4.39996 0.666626 0.666626 4.39996 0.666626 8.99996C0.666626 13.6 4.39996 17.3333 8.99996 17.3333C13.6 17.3333 17.3333 13.6 17.3333 8.99996C17.3333 4.39996 13.6 0.666626 8.99996 0.666626ZM10.5666 8.61663L6.43329 12.75L5.25829 11.575L9.39163 7.44163L7.61663 5.66663L12.325 5.67496L12.3333 10.3833L10.5666 8.61663Z" fill="#7375FD"/>
</svg>
