<svg width="80" height="80" viewBox="0 0 80 80" fill="none" xmlns="http://www.w3.org/2000/svg">
<rect width="80" height="80" rx="12" fill="#FDEDB6"/>
<g clip-path="url(#clip0_629_18534)">
<path fill-rule="evenodd" clip-rule="evenodd" d="M56.0011 27.0005C56.0011 26.2036 55.6861 25.4405 55.123 24.878C54.5598 24.3155 53.7975 24.0005 53.0011 24.0005C47.5466 24.0005 32.4565 24.0005 27.002 24.0005C26.2056 24.0005 25.4433 24.3155 24.8801 24.878C24.317 25.4405 24.002 26.2036 24.002 27.0005C24.002 32.4549 24.002 47.5449 24.002 52.9992C24.002 53.7961 24.317 54.5592 24.8801 55.1217C25.4433 55.6842 26.2056 55.9992 27.002 55.9992C32.4565 55.9992 47.5466 55.9992 53.0011 55.9992C53.7975 55.9992 54.5598 55.6842 55.123 55.1217C55.6861 54.5592 56.0011 53.7961 56.0011 52.9992V27.0005ZM54.002 27.0005V52.9992C54.002 53.2655 53.8957 53.5186 53.7089 53.7061C53.5207 53.8936 53.267 54.0005 53.0011 54.0005C47.5466 54.0005 32.4565 54.0005 27.002 54.0005C26.7361 54.0005 26.4824 53.8936 26.2942 53.7061C26.1074 53.5186 26.0011 53.2655 26.0011 52.9992C26.0011 47.5449 26.0011 32.4549 26.0011 27.0005C26.0011 26.7342 26.1074 26.4811 26.2942 26.2936C26.4824 26.1061 26.7361 25.9992 27.002 25.9992C32.4565 25.9992 47.5466 25.9992 53.0011 25.9992C53.267 25.9992 53.5207 26.1061 53.7089 26.2936C53.8957 26.4811 54.002 26.7342 54.002 27.0005Z" fill="#4D5056"/>
<path fill-rule="evenodd" clip-rule="evenodd" d="M54.5 45.5L49 40.5L41.5 46.5L33.5 38L25.5 45.5V54.5H54.5V45.5Z" fill="#4D5056"/>
<path fill-rule="evenodd" clip-rule="evenodd" d="M25.9925 46.2367C25.9925 46.2367 30.6105 41.7317 33.1205 39.2837C33.3225 39.0867 33.5985 38.9837 33.8795 39.0017C34.1615 39.0187 34.4225 39.1547 34.5995 39.3747C36.0285 41.1617 38.2565 43.9467 39.7275 45.7847C40.2825 46.4787 41.1165 46.8907 42.0045 46.9107C42.8925 46.9297 43.7435 46.5547 44.3275 45.8867C45.4605 44.5917 46.9845 42.8497 48.1295 41.5417C48.3275 41.3147 48.6185 41.1897 48.9195 41.2017C49.2205 41.2127 49.5005 41.3597 49.6815 41.6007C51.4585 43.9697 54.2015 47.6267 54.2015 47.6267C54.5325 48.0687 55.1595 48.1577 55.6015 47.8267C56.0435 47.4957 56.1325 46.8687 55.8015 46.4267C55.8015 46.4267 53.0585 42.7697 51.2815 40.4007C50.7395 39.6767 49.8985 39.2367 48.9945 39.2027C48.0905 39.1687 47.2195 39.5447 46.6245 40.2247C45.4795 41.5327 43.9555 43.2747 42.8225 44.5697C42.6275 44.7927 42.3445 44.9177 42.0485 44.9107C41.7525 44.9047 41.4745 44.7667 41.2895 44.5357C39.8185 42.6977 37.5905 39.9127 36.1615 38.1257C35.6315 37.4637 34.8485 37.0567 34.0025 37.0047C33.1575 36.9527 32.3295 37.2607 31.7235 37.8517C29.2135 40.3007 24.5965 44.8047 24.5965 44.8047C24.2015 45.1907 24.1935 45.8247 24.5785 46.2197C24.9645 46.6147 25.5975 46.6217 25.9925 46.2367Z" fill="#4D5056"/>
<path d="M31 34.5C32.6569 34.5 34 33.1569 34 31.5C34 29.8431 32.6569 28.5 31 28.5C29.3431 28.5 28 29.8431 28 31.5C28 33.1569 29.3431 34.5 31 34.5Z" fill="#4D5056"/>
</g>
<defs>
<clipPath id="clip0_629_18534">
<rect width="32" height="32" fill="white" transform="translate(24 24)"/>
</clipPath>
</defs>
</svg>
 