<svg width="80" height="80" viewBox="0 0 80 80" fill="none" xmlns="http://www.w3.org/2000/svg">
<rect width="80" height="80" rx="12" fill="#E7E6E8"/>
<path fill-rule="evenodd" clip-rule="evenodd" d="M55.9992 27.0006C55.9992 26.2037 55.6842 25.4406 55.121 24.8781C54.5578 24.3156 53.7955 24.0006 52.9992 24.0006C47.5446 24.0006 32.4546 24.0006 27 24.0006C26.2036 24.0006 25.4414 24.3156 24.8782 24.8781C24.315 25.4406 24 26.2037 24 27.0006C24 32.455 24 47.545 24 52.9994C24 53.7962 24.315 54.5594 24.8782 55.1219C25.4414 55.6844 26.2036 55.9993 27 55.9993C32.4546 55.9993 47.5446 55.9993 52.9992 55.9993C53.7955 55.9993 54.5578 55.6844 55.121 55.1219C55.6842 54.5594 55.9992 53.7962 55.9992 52.9994V27.0006ZM54.0001 27.0006V52.9994C54.0001 53.2656 53.8937 53.5187 53.7069 53.7062C53.5187 53.8937 53.2651 54.0006 52.9992 54.0006C47.5446 54.0006 32.4546 54.0006 27 54.0006C26.7341 54.0006 26.4805 53.8937 26.2923 53.7062C26.1055 53.5187 25.9991 53.2656 25.9991 52.9994C25.9991 47.545 25.9991 32.455 25.9991 27.0006C25.9991 26.7344 26.1055 26.4812 26.2923 26.2937C26.4805 26.1062 26.7341 25.9993 27 25.9993C32.4546 25.9993 47.5446 25.9993 52.9992 25.9993C53.2651 25.9993 53.5187 26.1062 53.7069 26.2937C53.8937 26.4812 54.0001 26.7344 54.0001 27.0006Z" fill="#4D5056"/>
<path fill-rule="evenodd" clip-rule="evenodd" d="M54.5 45.5L49 40.5L41.5 46.5L33.5 38L25.5 45.5V54.5H54.5V45.5Z" fill="#4D5056"/>
<path fill-rule="evenodd" clip-rule="evenodd" d="M25.9905 46.2369C25.9905 46.2369 30.6086 41.7319 33.1186 39.2839C33.3206 39.0869 33.5966 38.9839 33.8776 39.0019C34.1596 39.0189 34.4206 39.1549 34.5976 39.3749C36.0266 41.1619 38.2545 43.9469 39.7255 45.7849C40.2806 46.4789 41.1146 46.8909 42.0026 46.9109C42.8906 46.9299 43.7416 46.5549 44.3256 45.8869C45.4586 44.5919 46.9826 42.8499 48.1276 41.5419C48.3256 41.3149 48.6166 41.1899 48.9176 41.2019C49.2186 41.2129 49.4985 41.3599 49.6795 41.6009C51.4565 43.9699 54.1995 47.6269 54.1995 47.6269C54.5305 48.0689 55.1576 48.1579 55.5996 47.8269C56.0416 47.4959 56.1306 46.8689 55.7996 46.4269C55.7996 46.4269 53.0566 42.7699 51.2796 40.4009C50.7376 39.6769 49.8965 39.2369 48.9925 39.2029C48.0885 39.1689 47.2176 39.5449 46.6226 40.2249C45.4776 41.5329 43.9536 43.2749 42.8206 44.5699C42.6256 44.7929 42.3425 44.9179 42.0465 44.9109C41.7505 44.9049 41.4725 44.7669 41.2875 44.5359C39.8165 42.6979 37.5886 39.9129 36.1596 38.1259C35.6296 37.4639 34.8466 37.0569 34.0006 37.0049C33.1556 36.9529 32.3276 37.2609 31.7216 37.8519C29.2116 40.3009 24.5946 44.8049 24.5946 44.8049C24.1996 45.1909 24.1915 45.8249 24.5765 46.2199C24.9625 46.6149 25.5955 46.6219 25.9905 46.2369Z" fill="#4D5056"/>
<path d="M31 34.5C32.6569 34.5 34 33.1569 34 31.5C34 29.8431 32.6569 28.5 31 28.5C29.3431 28.5 28 29.8431 28 31.5C28 33.1569 29.3431 34.5 31 34.5Z" fill="#4D5056"/>
</svg>
