<svg width="80" height="80" viewBox="0 0 80 80" fill="none" xmlns="http://www.w3.org/2000/svg">
<rect width="80" height="80" rx="12" fill="#FDEDB6"/>
<g clip-path="url(#clip0_16_413)">
<path fill-rule="evenodd" clip-rule="evenodd" d="M56.0004 27.0006C56.0004 26.2037 55.6854 25.4406 55.1222 24.8781C54.559 24.3156 53.7968 24.0006 53.0004 24.0006C47.5458 24.0006 32.4558 24.0006 27.0012 24.0006C26.2049 24.0006 25.4426 24.3156 24.8794 24.8781C24.3162 25.4406 24.0012 26.2037 24.0012 27.0006C24.0012 32.455 24.0012 47.545 24.0012 52.9994C24.0012 53.7962 24.3162 54.5594 24.8794 55.1219C25.4426 55.6844 26.2049 55.9993 27.0012 55.9993C32.4558 55.9993 47.5458 55.9993 53.0004 55.9993C53.7968 55.9993 54.559 55.6844 55.1222 55.1219C55.6854 54.5594 56.0004 53.7962 56.0004 52.9994V27.0006ZM54.0013 27.0006V52.9994C54.0013 53.2656 53.8949 53.5187 53.7081 53.7062C53.5199 53.8937 53.2663 54.0006 53.0004 54.0006C47.5458 54.0006 32.4558 54.0006 27.0012 54.0006C26.7353 54.0006 26.4817 53.8937 26.2935 53.7062C26.1067 53.5187 26.0003 53.2656 26.0003 52.9994C26.0003 47.545 26.0003 32.455 26.0003 27.0006C26.0003 26.7344 26.1067 26.4812 26.2935 26.2937C26.4817 26.1062 26.7353 25.9993 27.0012 25.9993C32.4558 25.9993 47.5458 25.9993 53.0004 25.9993C53.2663 25.9993 53.5199 26.1062 53.7081 26.2937C53.8949 26.4812 54.0013 26.7344 54.0013 27.0006Z" fill="#4D5056"/>
<path fill-rule="evenodd" clip-rule="evenodd" d="M54.5 45.5L49 40.5L41.5 46.5L33.5 38L25.5 45.5V54.5H54.5V45.5Z" fill="#4D5056"/>
<path fill-rule="evenodd" clip-rule="evenodd" d="M25.991 46.2369C25.991 46.2369 30.609 41.7319 33.119 39.2839C33.321 39.0869 33.597 38.9839 33.878 39.0019C34.16 39.0189 34.421 39.1549 34.598 39.3749C36.027 41.1619 38.255 43.9469 39.726 45.7849C40.281 46.4789 41.115 46.8909 42.003 46.9109C42.891 46.9299 43.742 46.5549 44.326 45.8869C45.459 44.5919 46.983 42.8499 48.128 41.5419C48.326 41.3149 48.617 41.1899 48.918 41.2019C49.219 41.2129 49.499 41.3599 49.68 41.6009C51.457 43.9699 54.2 47.6269 54.2 47.6269C54.531 48.0689 55.158 48.1579 55.6 47.8269C56.042 47.4959 56.131 46.8689 55.8 46.4269C55.8 46.4269 53.057 42.7699 51.28 40.4009C50.738 39.6769 49.897 39.2369 48.993 39.2029C48.089 39.1689 47.218 39.5449 46.623 40.2249C45.478 41.5329 43.954 43.2749 42.821 44.5699C42.626 44.7929 42.343 44.9179 42.047 44.9109C41.751 44.9049 41.473 44.7669 41.288 44.5359C39.817 42.6979 37.589 39.9129 36.16 38.1259C35.63 37.4639 34.847 37.0569 34.001 37.0049C33.156 36.9529 32.328 37.2609 31.722 37.8519C29.212 40.3009 24.595 44.8049 24.595 44.8049C24.2 45.1909 24.192 45.8249 24.577 46.2199C24.963 46.6149 25.596 46.6219 25.991 46.2369Z" fill="#4D5056"/>
<path d="M31 34.5C32.6569 34.5 34 33.1569 34 31.5C34 29.8431 32.6569 28.5 31 28.5C29.3431 28.5 28 29.8431 28 31.5C28 33.1569 29.3431 34.5 31 34.5Z" fill="#4D5056"/>
</g>
<defs>
<clipPath id="clip0_16_413">
<rect width="32" height="32" fill="white" transform="translate(24 24)"/>
</clipPath>
</defs>
</svg>
